<svg id="Layer_5" enable-background="new 0 0 64 64" height="512" viewBox="0 0 64 64" width="512" xmlns="http://www.w3.org/2000/svg"><g><g><g><path d="m32 47c-8.271 0-15-6.729-15-15s6.729-15 15-15 15 6.729 15 15-6.729 15-15 15zm0-25c-5.514 0-10 4.486-10 10s4.486 10 10 10 10-4.486 10-10-4.486-10-10-10z" fill="#f0bc5e"/></g></g><g><g><path d="m52 47c-1.654 0-3-1.346-3-3s1.346-3 3-3 3 1.346 3 3-1.346 3-3 3z" fill="#f0bc5e"/></g></g><g><g><path d="m12 47c-1.654 0-3-1.346-3-3s1.346-3 3-3 3 1.346 3 3-1.346 3-3 3z" fill="#f0bc5e"/></g></g><g><path d="m61 55.807v-37.807c0-2.414-1.721-4.434-4-4.899v-2.285c1.161-.414 2-1.514 2-2.816 0-1.654-1.346-3-3-3h-1v-1c0-1.654-1.346-3-3-3s-3 1.346-3 3v1h-1c-1.654 0-3 1.346-3 3 0 1.302.839 2.402 2 2.816v2.184h-30v-2.184c1.161-.414 2-1.514 2-2.816 0-1.654-1.346-3-3-3h-1v-1c0-1.654-1.346-3-3-3s-3 1.346-3 3v1h-1c-1.654 0-3 1.346-3 3 0 1.302.839 2.402 2 2.816v2.285c-2.279.465-4 2.485-4 4.899v37.807l-2 5.001v2.192h62v-2.192zm-6-44.807v2h-2v-2zm-4-7c0-.552.449-1 1-1s1 .448 1 1v1h-2zm-3 3h8c.551 0 1 .448 1 1s-.449 1-1 1h-8c-.551 0-1-.448-1-1s.449-1 1-1zm1 4h2v2h-2zm-36 2v-2h2v2zm-2-2v2h-2v-2zm0-7c0-.552.449-1 1-1s1 .448 1 1v1h-2zm-3 3h8c.551 0 1 .448 1 1s-.449 1-1 1h-8c-.551 0-1-.448-1-1s.449-1 1-1zm0 8h48c1.654 0 3 1.346 3 3v37h-6v-8.184c-.314.112-.648.184-1 .184s-.686-.072-1-.184v8.184h-6.279l-2-6h-21.442l-2 6h-6.279v-8.184c-.314.112-.648.184-1 .184s-.686-.072-1-.184v8.184h-6v-37c0-1.654 1.346-3 3-3zm34.612 40h-21.224l1.333-4h18.559zm-39.535 6 1.6-4h54.646l1.6 4z"/><path d="m32 43c6.065 0 11-4.935 11-11s-4.935-11-11-11-11 4.935-11 11 4.935 11 11 11zm0-20c4.962 0 9 4.037 9 9s-4.038 9-9 9-9-4.037-9-9 4.038-9 9-9z"/><path d="m57 17h-8v8h8zm-2 6h-4v-4h4z"/><path d="m15 17h-8v8h8zm-2 6h-4v-4h4z"/><path d="m7 27h2v2h-2z"/><path d="m7 35h2v2h-2z"/><path d="m7 31h2v2h-2z"/><path d="m55 33h2v2h-2z"/><path d="m55 29h2v2h-2z"/><path d="m55 37h2v2h-2z"/><path d="m29.105 38.553 1.79.894 4.723-9.447h-4.231l1.562-4.684-1.898-.632-2.438 7.316h3.769z"/></g></g></svg>